<svg xmlns="http://www.w3.org/2000/svg" viewBox="0 0 1200 240" role="img" fill="none"><title>ground_snow</title><rect width="1200" height="240" fill="#EDF6F9"/><path d="M0 92q140-60 280 0t280 0t280 0t360 0v148H0Z" fill="#D4E4EA" opacity=".45"/><path d="M25 160q8-28 16 0q8-22 15 1" stroke="#D4E4EA" stroke-width="6" stroke-linecap="round"/><path d="M100 160q8-28 16 0q8-22 15 1" stroke="#D4E4EA" stroke-width="6" stroke-linecap="round"/><path d="M175 160q8-28 16 0q8-22 15 1" stroke="#D4E4EA" stroke-width="6" stroke-linecap="round"/><path d="M250 160q8-28 16 0q8-22 15 1" stroke="#D4E4EA" stroke-width="6" stroke-linecap="round"/><path d="M325 160q8-28 16 0q8-22 15 1" stroke="#D4E4EA" stroke-width="6" stroke-linecap="round"/><path d="M400 160q8-28 16 0q8-22 15 1" stroke="#D4E4EA" stroke-width="6" stroke-linecap="round"/><path d="M475 160q8-28 16 0q8-22 15 1" stroke="#D4E4EA" stroke-width="6" stroke-linecap="round"/><path d="M550 160q8-28 16 0q8-22 15 1" stroke="#D4E4EA" stroke-width="6" stroke-linecap="round"/><path d="M625 160q8-28 16 0q8-22 15 1" stroke="#D4E4EA" stroke-width="6" stroke-linecap="round"/><path d="M700 160q8-28 16 0q8-22 15 1" stroke="#D4E4EA" stroke-width="6" stroke-linecap="round"/><path d="M775 160q8-28 16 0q8-22 15 1" stroke="#D4E4EA" stroke-width="6" stroke-linecap="round"/><path d="M850 160q8-28 16 0q8-22 15 1" stroke="#D4E4EA" stroke-width="6" stroke-linecap="round"/><path d="M925 160q8-28 16 0q8-22 15 1" stroke="#D4E4EA" stroke-width="6" stroke-linecap="round"/><path d="M1000 160q8-28 16 0q8-22 15 1" stroke="#D4E4EA" stroke-width="6" stroke-linecap="round"/><path d="M1075 160q8-28 16 0q8-22 15 1" stroke="#D4E4EA" stroke-width="6" stroke-linecap="round"/><path d="M1150 160q8-28 16 0q8-22 15 1" stroke="#D4E4EA" stroke-width="6" stroke-linecap="round"/><path d="M0 66q80-44 160 0t160 0t160 0t160 0t160 0t160 0t160 0t160 0v45H0Z" fill="#fff"/></svg>